<?xml version="1.0"?>
<svg xmlns:rdf="http://www.w3.org/1999/02/22-rdf-syntax-ns#" xmlns="http://www.w3.org/2000/svg" xmlns:cc="http://creativecommons.org/ns#" xmlns:xlink="http://www.w3.org/1999/xlink" xmlns:dc="http://purl.org/dc/elements/1.1/" xmlns:svg="http://www.w3.org/2000/svg" id="svg2" viewBox="0 0 610 610" version="1.1">
  <g id="layer2" opacity=".5604" display="none">
    <path id="path3210" d="m385.71 310a85.714 85.714 0 1 1 -171.43 0 85.714 85.714 0 1 1 171.43 0z" stroke="#000" fill="#102000" transform="matrix(1.6297 0 0 1.6297 -188.9 -195.19)"/>
  </g>
  <g id="layer1">
    <rect id="rect5840" stroke-linejoin="round" ry="1.5381" transform="translate(5 -397.36)" height="600" width="600" stroke="#4a0" y="402.36" x="0" stroke-width="10" fill="none"/>
  </g>
  <g id="layer4" transform="translate(5 -397.36)">
    <path id="path3071" d="m45 907.36c2.7934 0.0396 5.362 0.1177 7.8892 0.11223 2.5271-0.005 5.0127-0.0945 7.64-0.38917s5.3963-0.79499 8.4902-1.623c3.0939-0.82804 6.5127-1.9838 10.44-3.5893 6.3573-2.5992 10.749-7.8732 15.53-17.422 1.2041-2.405 6.9487-7.5887 8.2139-9.9693 5.5725-10.486 14.861-13.438 20.92-22.379 1.7037-2.5141 4.0295-3.8394 5.2153-6.5749 4.6646-10.761 6.423-21.997 13.976-32.441 3.458-4.7821 16.542-6.9045 13.012 1.8918-3.8224 9.5251-10.774 26.121-11.467 28.575-2.0916 7.4081 3.5197 8.7979 6.4421 4.7488l28.188-39.055c7.3984-10.251 18.801-2.7448 12.312 5.5658-2.6563 3.4017-5.3995 6.751-7.9688 10.205-5.8279 7.8349-16.471 21.116-16.882 23.848-0.93887 6.2407-3.9999 10.85 8.7287 0.18639l36.766-30.802c6.2819-5.2628 16.93-1.8325 6.5366 13.051-2.8732 4.1143-8.8217 6.9824-12.882 10.792-7.3228 6.8714-19.059 20.052-20.629 21.693-7.0551 7.381-6.2914 11.019 1.2378 6.021l38.027-25.241c10.181-6.7581 22.281-2.1258 12.289 6.0265l-40.208 32.803c-7.1132 5.8032-39.821 33.164-17.23 40.903 9.289 3.182 14.329 2.5239 19.617 3.4162 8.0152 1.3527 20.703 3.2499 23.316 6.4925 8.0709 10.016-3.5636 11.409-11.831 10.353-4.4723-0.57089-5.8712 1.2739-10.737 1.2599-4.8657-0.0139-9.4087-1.765-15.741-1.1337-10.878 1.0845-14.858 3.4845-27.2 3.0288-13.615-0.5028-35.565-4.0953-46.678-0.68694l-23.324 10.332h-42.006z" fill="#94c207"/>
    <g id="layer1-9" transform="matrix(-.36056 .63385 -.73668 -.41905 537.57 494.45)" fill="#09ad1a">
      <path id="path2906" d="m253.45 471.87c5.67-13.71 10.26-8.88 12.72-23.53-4.0614-17.231-4.7395-34.947-0.80804-52.39 2.8842-17.342 0.33708-35.148-8.3743-50.534-7.7738-9.1466-14.206-43.059 6.9919-28.388 8.5463 14.479 13.191 34.113 27.701 43.463 2.9377-13.016-0.96443-30.017 0.31708-44.588 0.0291-12.631-3.3586-41.152 17.565-32.496 7.4162 17.068 2.6521 37.79 6.8845 56.162-0.72485 11.162 7.1422 17.208 9.5448 3.39 8.4869-19.076 11.237-39.832 16.572-59.816 13.744-19.782 25.419 10.371 18.344 23.275-0.31401 17.809-10.092 33.458-12.345 50.79 11.503-3.4969 18.674-24.18 25.85-35.941 4.8053-10.435 15.313-39.664 28.678-21.764 3.2504 33.073-29.827 55.012-31.117 86.926-0.57315 13.362 5.9596 33.652 22.143 20.064 16.631-7.4544 34.426-24.163 53.709-15.39 10.89 15.302-21.295 19.515-29.205 29.615-15.8 11.194-30.798 23.434-47.833 32.786-10.773 12.368-32.463 7.5927-38.212 24.288-3.8266 9.693-6.1586 21.877-11.214 33.562-11.688 5.7203-22.613 11.067-31.586 15.459-13.397-20.264-29.843-45.14-36.323-54.942z" fill="#4a0"/>
    </g>
    <g id="layer1-1" transform="matrix(.27407 -.64128 .64128 .27407 257.89 405.03)" fill="#4a0">
      <path id="path2830" d="m-544.69 680.5c1.9514-20.134 3.3898-41.433 4.867-61.621-9.384-11.324-13.535-25.716-18.4-39.311-5.2724-17.442-1.7332-36.328-6.6579-53.625 0.3891-13.131-8.908-22.768-13.389-33.405 6.7692-18.994 27.205 1.0001 32.298 11.817 5.5272 7.5677 10.033 27.572 11.57 30.84 6.7179-14.121 8.1196-30.041 9.6931-45.381 0.13899-18.828 7.5355-36.462 9.7098-54.991 0.78296-15.903 29.053-22.347 23.08-1.4223-3.4498 23.039-5.0594 46.58-2.1577 69.839 5.3672-5.9689 6.0049-27.379 9.2403-39.146 3.1123-13.684 2.88-29.559 11.958-40.8 15.063-14.493 22.504 12.693 16.616 24.121-1.3104 19.537-4.2463 39.042-4.239 58.62 8.1147-5.9049 8.7381-24.034 12.72-34.992 4.9228-12.069 3.4753-35.91 20.727-36.358 14.976 7.14 2.7565 26.542 2.003 38.746-3.3955 16.632-7.929 33.133-10.534 49.862 8.3728-6.7364 11.022-26.056 15.507-37.954 1.1027-16.17 29.171-21.297 21.33 0.0982-2.4868 18.219-9.4548 35.46-14.91 52.893-6.7276 22.052-13.718 44.145-22.709 65.404-5.8153 14.649-17.678 23.257-20.71 39.324l-87.613 37.445z" fill="#4a0"/>
    </g>
    <g id="layer1-4" transform="matrix(.60905 0 0 .58073 609.01 604.83)" fill="#94c207">
      <path id="path3219" d="m-515.57 607.04c-1.6991-12.801-6.2921-25.487-10.076-38.058-8.0086-18.727-10.69-40.141-24.008-56.193-6.8078-13.397-17.205-24.543-23.874-38.02-11.416-16.411 14.198-25.903 20.849-8.7785 7.1195 12.832 16.117 24.989 26.265 35.407 11.273-6.4573-6.1441-21.111-6.0317-31.166-4.2407-16.435-10.829-33.197-8.5408-50.388 12.359-13.652 23.728 6.119 24.838 17.911 2.3777 15.76 10.934 29.562 13.467 45.221 5.5318-7.4522-1.8539-23.132-3.025-33.529-0.83351-15.625-0.35767-31.621-3.5379-46.886-0.20235-14.83 22.882-14.531 23.805-0.2565 2.1418 16.46 5.74 32.737 7.7277 49.199 0.45385 7.6524 0.48583 31.641 2.9295 13.113 0.11962-13.726 2.9163-27.254 3.8441-40.728-2.82-12.628 10.404-34.466 22.095-20.066 3.8928 20.21 1.559 41.156 0.11558 61.55-3.0787 13.822 0.01 28.234 4.5019 41.873 2.8022 6.769 11.289 18.959 13.234 4.7478 2.2207-12.916 6.6795-24.988 14.759-35.244 7.884-15.335 35.17-6.4488 24.066 10.376-6.4248 16.592-14.438 33.313-14.642 51.484-2.4279 15.772-16.016 26.25-22.843 40.092-4.9697 6.193-11.353 20.955-14.019 28.34h-71.9z" fill="#94c207"/>
    </g>
  </g>
  <g id="layer3">
    <g id="layer1-3" stroke="#000" transform="matrix(-.52534 -.706 .88870 -.57895 -265.08 112.5)" fill="#94c207">
      <path id="path3143" d="m-495.01 605.24c-10.804-21.493-15.563-37.665-18.127-60.428-0.57516-10.698-9.4792-18.128-13.348-26.837-3.6621-8.6842-17.83-26.391-6.0036-32.689 10.051 1.8702 12.007 14.245 17.132 21.623 4.6119 5.2167 10.418 19.262 18.55 15.347 3.3944-3.6664-3.6129-15.227-4.9056-21.6-0.97252-9.9632-3.5011-18.034-6.4136-27.883-3.0431-13.503 6.9156-20.342 13.02-5.4675 5.6829 10.931 4.0632 17.254 10.529 27.499 4.2577 3.5817 3.8451 26.204 10.399 13.83-1.803-12.122-2.6461-25.086-6.7377-36.779-0.0904-9.6288-7.5688-19.375-1.573-28.385 13.621-5.8501 12.348 14.343 16.336 22.541 4.1084 14.526 10.063 56.987 18.099 36.973 2.6924-13.358 5.9686-26.891 6.8466-40.592-1.4705-10.067 11.711-24.765 16.234-9.6258 2.0115 10.724-0.94265 23.88-0.88553 32.854 0.0691 10.852-3.1636 23.199-3.8041 34.626-2.8912 10.111 3.3851 25.655 14.493 15.396 10.544-6.5087 9.3814-9.8374 25.174-14.999 17.142-5.6026 30.03 1.9924 12.2 9.218-9.6024 3.6977-19.776 15.432-26.272 24.538-4.9739 10.819-16.247 16.994-23.512 25.931-5.9957 7.0524-11.369 14.577-12.754 24.548-1.724 12.409-1.7058 28.837-5.0085 28.88-3.0026 3.6616-6.3467 7.7395-11.121 13.562-12.518-7.4-25.265-14.935-35.604-21.046-0.39964-7.2639-1.8749-20.962-2.9427-21.036z" fill="#94c207"/>
    </g>
    <g id="layer1-0" transform="matrix(.062246 .83722 -.96229 .054156 652.59 639.68)" fill="#250">
      <path id="path3067" d="m-386.01 601.23c2.0028-8.184 13.325-19.372 19.848-24.272 8.2039-5.3665 11.771-15.426 14.715-24.692 3.1401-9.4858 12.347-14.848 18.923-19.809 3.6926-9.0251-14.181-12.469-19.805-7.3373-8.0136 4.1194-14.391 11.61-18.957 19.61-8.2726 10.204-7.9961-14.746-7.4681-20.759 1.7627-12.88 3.2881-25.699 2.1622-38.822 3.03-14.635-16.816-20.619-15.711-3.8186-1.067 11.616-1.3038 22.008-2.9364 33.492 0.76235 8.8478-6.604 6.1104-3.997-1.9649-2.0091-12.55-1.4558-25.458-4.6006-37.932 0.54006-13.026-18.816-15.631-15.394-0.51071 0.85693 10.737 1.168 19.947 1.6682 31.033 0.41656 3.931 0.30169 21.458-2.7356 8.8454-3.0081-11.621-5.2655-23.345-8.6158-34.878-3.6922-16.483-21.166-1.4499-13.145 10.167 1.898 8.0547 2.8498 16.004 4.5017 23.917 1.9065 6.742 3.8444 24.199-7.2463 15.327-6.8259-7.2309-10.307-18.21-16.934-25.625-13.357-2.736-7.2933 14.69-3.0425 21.537 3.2526 6.2518 6.5151 13.114 10.935 18.205 5.3099 6.6476 4.9226 16.643 6.3661 25.202 1.8238 11.555 8.7524 20.984 15.002 30.081l46.467 3.0057z" fill="#250"/>
    </g>
    <g id="layer1-2" transform="matrix(-.085197 -.50495 .58692 -.13736 133.09 121.04)" fill="#250">
      <path id="path3333" d="m-486 639.79c-1.9644-14.771-19.044-20.321-27.752-31.331-10.279-13.087-25.77-19.078-38.5-28.439-9.8866-11.28-34.738-12.432-35.874-28.254 12.82-14.56 37.112-9.8808 50.781 1.0237 10.596 5.4997 29.38 16.411 35.526-0.97187 3.7956-8.6084 6.0142-18.38 1.138-27.141-4.567-10.973-8.019-23.089-11.53-34.796-4.1094-11.894-5.573-23.601-9.7193-35.548-4.2011-11.028-11.579-25.55-4.07-34.543 7.2542-8.6881 23.113 4.6154 24.294 16.346 4.2892 9.7325 7.0316 19.788 11.706 29.154 4.9185 8.9026 9.2312 19.777 14.725 28.047-3.3434-23.798-0.3578-48.813-4.6461-72.684-3.989-23.481 23.254-22.396 23.627-4.5406 3.2136 15.362 2.4956 31.68 7 46.716 5.0251 10.199-0.22682 32.68 9.9624 35.647 3.6033-13.898 8.1609-27.107 11.2-41.104 5.3592-11.697 0.2097-38.055 19.089-35.532 14.02 7.2398 2.3883 30.534 3.9684 43.977-2.7745 15.655-3.334 31.818-8.1332 46.781 5.4526 9.1619 14.684-15.128 21.207-20.467 8.2004-9.6046 10.895-22.132 18.781-30.954 20.511-6.0282 15.221 20.666 7.44 30.541-6.1234 13.384-13.124 26.515-21.295 39.073-5.7284 15.138-6.777 31.901-9.194 48.062-3.6883 13.449-5.628 27.625-9.7206 40.938-4.3713 7.088-1.6099 23.951-0.18282 31.588-41.421-6.0126-66.011-9.5821-79.828-11.588z" fill="#250"/>
    </g>
    <g id="layer1-32" transform="matrix(.67965 -.13344 -.10888 -.83297 671.59 486.28)" fill="#250">
      <path id="path3143-5" d="m-519.44 547.93c-0.90383-12.382-11.609-21.109-16.374-31.239-4.5198-10.099-21.676-30.791-7.7932-37.898 11.949 2.3136 14.523 16.656 20.75 25.266 5.5732 6.1027 12.745 22.435 22.299 18.028 3.946-4.1897-4.5975-17.666-6.2616-25.056-1.3594-11.538-7.7584-20.658-8.1791-32.345-10.68-14.906 15.212-25.192 14.02-5.8761 6.961 12.728 6.4671 19.765 14.342 31.71 5.1195 4.2064 5.1007 30.365 12.609 16.152-2.3883-14.047-3.6567-29.054-8.748-42.639-0.30719-11.138-9.3711-22.522-2.4537-32.854 16.018-6.5622 14.93 16.774 19.826 26.316 5.17 16.862 13.108 66.061 22.214 43.034 2.9127-15.41 6.5137-31.013 7.2694-46.846-1.9516-11.666 13.362-28.468 19.036-10.89 2.6064 12.434-2.5585 27.746-0.36663 37.985-1.6353 12.49-3.2666 26.784-3.7881 39.991-3.2158 11.651 4.5442 29.723 17.493 18.024 12.359-7.37 22.307-20.873 38.253-18.991 13.385-6.2356 27.538 18.159 7.8547 15.895-13.566 1.355-25.054 14.522-32.562 24.957-2.8345 6.2195-7.5592 11.072-12.628 15.649-26.008 4.124-62.105 9.9068-110.1 16.138-2.3189-13.942-4.5598-28.783-6.7087-44.511z" fill="#250"/>
    </g>
    <g id="g3147" transform="matrix(.41884 0 0 .41884 167.63 191.48)">
      <path id="path6109" d="m302.91 441.57c-45.735 0-88.619 12.03-125.87 32.949-0.0233 0.0138-0.0703-0.0138-0.0934 0-24.107 13.546-45.674 30.968-64.196 51.243-41.912 45.87-67.75 106.72-67.75 173.71 0 142.38 115.58 257.89 257.91 257.89 4.4795 0 8.8265-0.4275 13.25-0.6534 7.1176-0.364 14.134-0.9359 21.088-1.867 64.483-8.6292 121.44-40.927 161.7-88.112 38.444-45.052 61.77-103.43 61.77-167.26 0-32.575-6.2304-63.608-17.262-92.312-5.4105-14.078-12.098-27.556-19.781-40.322-33.299-55.326-86.61-97.061-150.04-115.18-22.518-6.432-46.155-10.081-70.728-10.081z" fill="#94c207" transform="translate(5 -397.36)"/>
      <path id="path6111" d="m266.39 449.69c-0.92828 0-2.3968 0.16943-3.0266 1.0094-0.60788 0.81068-1.1915 1.8642-1.8493 2.522-0.39416 0.39425-0.8069 1.5136-1.8496 1.5136-0.60154 0-2.5937-0.32456-3.0264 0-0.80158 0.60161-1.9324 1.1727-2.1857 2.1861-0.32535 1.3017-1.4276 1.0913-2.3536 2.0177-0.52281 0.523-1.7454 1.4876-2.5221 1.6819-1.0153 0.25369-1.9063 0.50409-3.0265 0.50435-0.85235 0-2.0361-0.20539-2.8583 0-1.3425 0.33572-2.0452 1.5626-3.1944 1.8497-1.0448 0.26129-1.5182 0.67916-2.0177 1.3454-0.64522 0.8603-2.1455 1.3451-3.1945 1.3451-1.611 0-1.6809 0.29399-2.8584 1.1771-0.83633 0.62733-2.298 0.84073-3.3628 0.84073-1.4295 0-3.4548 0.0459-4.7077 0.67248-0.85299 0.42694-1.9839 0.58863-2.3538 1.5137-0.59058 1.4765-1.0856 1.6357-2.5221 2.3545-0.83568 0.41801-2.6777 0.99588-3.3628 1.6811-0.5224 0.52286-0.81234 2.384-1.5129 2.5227 0.0494 0.0297 1.1016 0.94769 1.3449 1.0087 1.0339 0.2588 2.379 0.16822 3.5308 0.16822 1.3922 0 2.6072 0.16821 4.0351 0.16821 1.2279 0 1.9578-0.84086 3.0265-0.84086 1.4312 0 2.8559-0.00052 4.2034 0.33638 1.1233 0.28071 2.1818 0.6726 3.3625 0.6726 1.2504 0 1.9551-0.0684 3.0265-0.33637 1.3597-0.34005 2.1785-0.27062 2.8583-1.177 0.59809-0.79781 1.1021-1.2889 1.8495-1.85 0.5973-0.44794 2.8585-2.8586 3.3627-2.8588 1.2531 0 2.169-0.3735 3.3625-0.67236 0.82032-0.20512 0.85246-2.1838 1.6816-2.018 0.487 0.0976 1.4863 1.3102 2.0175 1.1771 0.46233-0.11571 1.0346-0.24134 1.5133-0.16787 0.47873 0.0727 0.86641 0.43863 1.0089 1.0087 0.28011 1.1206 0.60323 1.0847 1.1768 1.8497 0.28113 0.37495 1.6774 2.0342 1.5132 2.6907-0.19953 0.79928-0.38991 2.1392-0.1677 3.0266 0.2225 0.89125 0.26485 1.8756 0.6723 2.6907 0.27237 0.54492 1.0418 1.8129 1.177 2.354 0.26333 1.0545 0.84925 1.0264 1.3452 2.018 0.59033 1.1814 0.29664 1.6962-0.16822 2.8586-0.39765 0.9944-0.97736 2.1453-0.67286 3.3633 0.063 0.2512 0.1057 0.589 0.16839 0.8409 0.18777 0.7524 0.29561 1.1598 0.50445 1.3449 0.20843 0.1854 0.50144 0.1684 1.3448 0.1684 0.99221 0 2.3599 0 2.8584 0.5043 0.674 0.6744 1.3453 1.0531 1.3453 2.0179 0 0.6943-0.38369 2.5461-1.0091 2.8587-0.452 0.2263-1.8492 1.4404-1.8492 2.186 0 0.9365 0.16804 1.9937 0.16804 2.8587 0 0.1889-0.0458 0.4899 0 0.6728 0.27908 1.1165 0.51659 2.5461 1.0089 3.5312 0.38755 0.775 1.2567 1.4602 1.6814 2.5225 0.37517 0.9385 0.41222 2.338 0.84061 3.195 0.47331 0.9469 0.94674 1.726 1.345 2.5222 0.47177 0.9437 0.75551 2.7736 1.5132 3.5316 0.89289 0.893 1.25 1.4986 2.0179 2.5222 0.65876 0.8789 1.4956 2.0004 2.1854 2.6905 0.6128 0.6131 1.2377 1.4059 2.018 2.186 1.6056 1.6063 2.5752 2.549 4.5394 3.5315 1.0059 0.5031 2.1743 1.0029 3.1945 1.5133 1.1531 0.5768 2.1279 1.3439 3.0265 2.018 1.0218 0.7664 2.0841 1.8748 3.5309 1.5133 1.2539-0.3136 3.1834-0.078 4.3714-0.6728 0.39079-0.1952 0.82097-0.3224 1.1769-0.6723 0.35632-0.35 0.65853-0.8689 0.33618-1.5138-0.2619-0.524-0.84059-1.375-0.84059-2.1857 0-1.3779-0.33616-2.6179-0.33616-4.0357 0-1.0045-0.0603-1.7778 0.16804-2.6908 0.18028-0.7219 0.2313-1.7639 0-2.6903-0.28474-1.1404-0.0535-2.2323-0.33616-3.3634-0.23478-0.9394-0.16822-2.1493-0.16822-3.1948 0-0.98-0.0558-1.7944 0.16822-2.6904 0.26331-1.0535 0.16822-2.152 0.16822-3.1951 0-0.8944-0.14974-1.887 0.16805-2.5224 0.32455-0.6494 0.74955-2.2117 1.6813-2.5226 0.78648-0.262 3.5309-0.8564 3.5309-1.8495 0-1.1074-0.10535-1.9344-0.33642-2.8587-0.26564-1.0627-0.96264-2.1098-0.33616-3.3632 0.72011-1.4409 2.1301-1.8316 3.0265-3.0268 0.51023-0.6807 1.394-1.3942 2.1854-2.1862 0.59497-0.5947 1.9013-1.1118 2.186-1.6815 0.36884-0.7377 0.84072-1.836 0.84072-2.6907 0-0.602 0.26164-2.7277-0.3364-3.0268-0.87018-0.4349-1.8494-0.2822-1.8494-1.3452 0-0.70663 0.76248-2.342 0.50444-2.8587-0.40782-0.81619-0.86257-1.5189-2.1859-1.8496-1.0427-0.26075-2.4766-0.46184-3.5307-0.6726-0.63848-0.12763-2.0911-0.31536-2.3539-0.84073-0.2995-0.59925-0.59162-2.23-1.1769-2.5227-0.95391-0.47706-2.0313-0.50423-3.1948-0.50423-0.29393 0-3.9219-0.86933-2.6898-1.1769 1.2247-0.30643 1.1884-0.52797 1.6811-1.5137 0.2796-0.55922 0.84137-1.5126 0.33628-2.186-0.70344-0.93864-1.661-1.3252-2.3539-2.0181-0.91962-0.91999-3.0496-1.3451-4.3714-1.3451-0.18829 0-0.3217 0.0456-0.50443 0-0.74503-0.18635-1.4393-0.93508-2.0176-1.5135-0.857-0.85764-2.4096-1.2331-3.5308-1.5133-0.84862-0.2121-1.368-0.93076-2.3538-1.1774-0.97244-0.24279-2.0148-0.25092-3.0265-0.5042-1.321-0.33048-2.7306-0.58011-4.0354-0.84115-0.48442-0.0965-3.9052-0.35001-3.699-1.1768 0.12625-0.50593 0.77591-1.6815 1.5132-1.6815 1.0117 0 2.2068 0.19777 3.1948 0 1.2892-0.25803 2.6121-0.50488 4.0354-0.5045 1.2983 0 2.6052 0.0839 3.8667 0.33627 1.5768 0.31562 3.3235 0.11606 4.8761 0.50446 1.2196 0.30488 3.0987 0.50438 4.3714 0.50438 1.7929 0 3.8812-0.16822 5.7167-0.16822 2.8041 0 5.3087-0.67235 8.0703-0.67235 1.5979 0 2.1442-0.9742 3.3628-1.1771 0.61745-0.10294 1.1429-0.28112 1.3449-0.50476 0.20234-0.22297 0.0261-0.4558-0.84061-0.67262-1.0546-0.26354-2.2706 0.10466-3.3627-0.16804-0.82069-0.20513-2.1244-0.50409-3.0264-0.50409-1.2975 0-2.4083-0.16822-3.6989-0.16822-0.92365 0-1.7571 0.27077-2.69 0.50424-1.229 0.30749-2.4098 0-3.6991 0h-4.0354c-1.8066 0-3.704-0.33597-5.3803-0.33597-1.0926 0-2.1612-0.16822-3.0265-0.16822-1.7176 0-3.7086-0.005-5.0441-0.6726-1.2449-0.62299-2.148-0.99979-3.5308-1.3455-0.63912-0.15992-2.1213-1.85-2.6901-1.85zm107.27 2.018c-2.1075 0.43913-4.2834 0.69254-6.221 1.1775-2.4512 0.61264-3.9624 1.7416-6.2209 1.1768-1.5713-0.39281-3.0636-0.51172-4.7078-0.84087 0.53361 0.53402 0.27699 1.23-0.16822 1.8497-0.44516 0.61999-1.174 1.0911-1.5133 1.3454-0.0496 0.0371-3.8766 0.46487-4.0352 0.50462-0.91109 0.22772-0.55607 0.84101 0 1.5134 0.55637 0.67275 1.4086 1.2771 1.6816 1.3452 2.079 0.52012 4.7026 1.763 6.557 2.6904 0.79707 0.39871 1.1702 0.71344 1.3449 1.1772 0.17511 0.46355 0.1532 1.1166 0.33641 1.8498 0.3616 1.4469 0.57313 1.8838 1.8496 2.5223 1.1163 0.5583 3.6213 0.67274 4.8758 0.67274 2.0325 0 5.038 1.007 6.5573 1.5132 1.2806 0.42694 3.1822 1.8377 4.0351 2.6906 0.88579 0.88627 1.7307 1.4107 2.6903 2.6907 1.1113 1.4819 2.2359 2.2949 3.6988 3.0266 1.2646 0.63259 3.2416 0.6121 4.0352 1.0088 1.4441 0.72236 3.1988 1.8542 4.2035 2.8589 1.185 1.1854 2.1269 2.295 3.0262 3.195 1.1682 1.1684 1.4487 2.4739 2.8583 3.5313 1.4429 1.0826 2.6013 1.9289 3.6991 3.027 1.2732 1.2733 2.4108 1.9064 3.5309 3.0265 0.88102 0.8814 1.7533 2.1618 3.1945 2.5226 1.9607 0.4902 3.2077-0.7599 4.876-1.1771 0.81723-0.2047 3.7753 2.8737 4.2031 3.1952 0.99168 0.7432 1.9493 2.2175 2.3542 3.0267 0.46029 0.9212 2.02 2.1887 2.6901 2.8587 1.2956 1.2957 1.6033 1.5585 3.1945 2.3541 0.65216 0.3261 1.3959 0.38 2.0174 0.168 0.62208-0.2113 1.0503-0.6709 1.1771-1.1774 0.35129-1.4053 0.89046-2.1548 0.50431-3.6991-0.2273-0.9101-0.0862-1.9461 0.33618-2.6906 0.42293-0.7444 1.1108-1.1262 2.3542-0.5045 0.88812 0.4447 1.4532 1.8979 1.8496 2.6907 0.55868 1.1185 1.3449 2.5976 1.3449 4.2035v3.868c0 0.6124 7.0717 4.5501 7.2298 4.7085 0.90647 0.9061 2.1283 1.4751 3.1944 2.1859 1.1735 0.7826 1.9319 1.5546 3.5308 2.3543 0.90672 0.4535 1.3954 1.2946 1.6816 2.186 0.2859 0.8913 0.35333 1.7814 0.16822 2.5223-0.20753 0.8311 0.49489 2.7289 0.16822 4.0359-0.25325 1.0139-0.44038 1.8174-0.33629 2.3542 0.1038 0.5368 0.53751 0.7732 1.6812 1.3451 1.6588 0.8295 2.2859 2.1454 4.0352 3.1951 0.9151 0.5492 1.6329 6.9652 2.1859 8.0717 0.63707 1.2744 1.3523 2.9972 1.0088 4.3721-0.37297 1.492-1.0088 2.5991-1.0088 4.2039 0 1.1437-0.89652 2.7458-1.177 3.8677-0.2672 1.0705-0.77602 2.2007-1.0089 3.0268-0.2327 0.8259-0.1892 1.3704 1.0089 1.8497 1.5575 0.6233 4.1203 1.3452 5.7164 1.3452h5.0441c0.802 0 1.6115 1.6098 2.3539 3.3632 0.7427 1.7534 1.3666 3.6387 1.5134 4.3722 0.31086 1.5564 0.71818 2.2315 1.6812 3.1949 1.263 1.2636 3.1094 2.3499 3.5309 4.0358 0.48081 1.9248 1.145 2.4174 0.33618 4.0358-0.39352 0.7876-3.1566 1.4103-4.0352 1.8497-1.2614 0.6309-3.3814 0.8611-5.2121 1.3454-0.91524 0.2421-1.7464 0.5957-2.354 1.0088-0.60725 0.413-1.0088 0.9594-1.0088 1.6816 0 1.6462 0.66253 2.3343 1.3453 3.6995 0.74244 1.4859 1.429 2.6337 2.3538 3.8676 0.15095 0.2011 0.32646 0.4949 0.50444 0.6726 1.0254 1.0258 0.91743 2.625 1.8496 3.8676 1.2849 1.7147 1.9192 3.1667 2.858 5.045 0.90401 1.8082 2.9441 3.1984 4.0352 5.3807 0.60956 1.2196 1.6816 3.5419 1.6816 5.2131 0 1.3185 0.69569 2.6146 1.0087 3.8677 0.23879 0.9556 1.2087 1.8837 2.1858 2.5225 0.97738 0.6385 1.9675 1.1222 2.8583 1.3451 1.5734 0.3934 3.3984 0.168 5.0441 0.168 1.7426 0 2.8102-0.5041 4.3714-0.5041 0.90013 0 2.177-2.3425 2.6902-3.0271 1.1234-1.4982 1.7773-2.4011 2.1856-4.0355 0.22018-0.8814 0.44966-1.7606 0.50457-2.691 0.0544-0.9297-0.1228-1.8037-0.84075-2.522-0.61187-0.6123-0.71597-1.2156-0.67258-1.8501 0.0434-0.6338 0.23388-1.2643 0.67258-1.8495 0.23557-0.3143 0.33618-4.3438 0.33618-4.5403 0-0.163-2.1352-2.8471-2.5219-3.3631-0.94444-1.2595-1.1835-2.871-1.8496-4.204-0.7183-1.4375-0.84061-2.6992-0.84061-4.5402v-4.204c0-1.9237-0.87983-2.5612-1.8496-3.5312-1.0208-1.021-0.9793-1.8998-1.3449-3.3633-0.25118-1.004-0.13505-1.5926 0.16805-2.0177 0.30335-0.4255 0.8885-0.7087 1.5132-1.1774 1.0348-0.776 1.3452-2.4133 1.3452-3.6992-0.00024-0.9282-0.29121-1.8674-0.33616-2.5225-0.0453-0.6553 0.10017-1.1602 0.84061-1.3451 0.68121-0.1708 1.4526 0.3898 2.0175 1.0087 0.56514 0.6191 0.94598 1.3736 1.1769 1.6817 0.876 1.1683 1.0555 1.8424 2.186 2.6905 1.5187 1.1396 3.7351 1.6995 5.0441 2.3544 1.3838 0.6922 2.6495 1.3985 3.6988 2.1859 1.3002 0.9755 2.3858 1.8818 3.1944 2.6903 0.77228 0.7725 0.99726 2.2828 1.6816 3.1952 0.717 0.9563 1.522 1.1855 2.3538 2.0181 0.89782 0.8979 1.4082 2.6487 1.8496 3.5312 0.48896 0.9782 0.82936 1.358 1.1766 1.3452 0.3479-0.012 0.77964-0.4739 1.5134-0.8408 0.464-0.2324-0.7227-3.7314-0.84073-4.204-0.32841-1.3141-2.1818-3.1864-2.6901-4.2039-0.54281-1.0858-0.36767-1.5501 0-1.5136 0.36716 0.037 0.96623 0.4621 1.3449 0.8408 1.1123 1.1126 2.1738 1.4891 3.0265 3.1951 0.36937 0.7386 1.7737 1.7737 2.5221 2.5225 1.0958 1.0962 0.94375 2.0946 1.345 3.6996 0.14197 0.5676 0.49606 0.7034 0.84075 0.6723 0.34442-0.03 0.77161-0.3136 1.1771-0.6723 0.81063-0.7181 1.6444-1.7767 1.8492-2.186 0.50275-1.006 0.65334-2.1283 1.0087-3.1951 0.46312-1.3899 0.23673-2.5895-0.16787-3.6996-0.40511-1.1102-1.083-2.1186-1.5134-3.195-0.38484-0.9623-0.97979-1.8017-1.5132-2.6906-1.6168-2.6949-2.9555-5.2385-4.3713-8.0715-0.0694-0.1385-0.1-0.1967-0.16822-0.3365-33.32-55.38-86.56-97.12-149.99-115.24zm-164.1 22.197c-0.84628 0-2.1965 1.6032-2.69 1.8501-1.0826 0.54124-2.213 1.7858-3.1949 2.5221-1.0211 0.76619-1.8846 1.4556-2.8579 2.1861-1.1108 0.83337-1.8477 1.0091-3.531 1.0091-1.5968 0.0004-1.6326 0.73192-2.8583 1.3453-1.4337 0.7169-2.7593 2.9967-3.3627 4.2037-0.56849 1.1377-1.3845 2.5617-2.0175 3.1951-0.76959 0.7698-2.1413 1.2386-3.0264 1.6817-1.0556 0.5275-0.67244 2.6116-0.67244 3.6994 0 0.727-2.8338 0.841-3.0264 0.841-0.38572 0-2.6202-3.2932-2.8584-3.5316-1.1892-1.1897-0.57028-1.4036-2.3539-1.8498-0.96563-0.2414-1.7507-0.1591-2.1858-0.3362-0.4349-0.1772-0.67246-0.653-0.67246-1.8496 0-1.2974 1.5529-1.8895 2.1857-2.5226 0.76943-0.7692 2.284-1.3103 3.0264-1.6815 1.0816-0.5412 1.5377-1.5376 2.3538-2.3543 1.0137-1.0139 1.177-2.1798 1.177-3.6994 0-0.47405-2.3922-1.4484-2.8583-1.6815-1.0675-0.53401-1.7455-1.7136-3.0264-2.3543-0.0231 0.0138-0.14507-0.0121-0.16822 0-24.107 13.546-45.705 30.845-64.227 51.12-0.20665 1.0388-0.30316 2.2881-0.67267 3.0267-0.70585 1.4127-1.6962 1.6966-2.6902 2.6908-0.74405 0.7442-1.1392 2.1352-1.6812 2.8589-0.78067 1.0406-1.9644 1.4599-2.8582 2.3539-0.86643 0.8666-0.84054 2.8376-0.84054 4.0361 0 1.1342 0.50115 1.5516 1.0086 1.5131 0.50736-0.038 0.94836-0.5514 1.3452-1.3451 0.49091-0.9825 2.9508-2.5076 3.8671-3.1951 1.2571-0.9434 3.0474-1.5551 3.6989-2.8587 0.58897-1.1782 1.1508-1.9127 1.5132-3.3631 0.48165-1.9274 1.5473-2.7584 2.5219-4.7088 0.34837 1.0886 0.91776 2.4313 2.0177 3.5316 0.50312 0.5035 0.73833 1.2325 0.67256 1.8499-0.0658 0.6172-0.43243 1.2009-0.67256 1.6812-0.37837 0.7575-1.9009 1.9012-2.6903 2.6908-0.95603 0.9565-1.4821 0.9466-2.0174 2.0181-0.57817 1.1563-1.5387 1.4458-1.8495 2.6902-0.29053 1.1627-0.88622 2.0322-1.1768 3.1948-0.4149 1.6599-0.13955 2.6619-1.3453 3.8679-0.81759 0.8178-1.2802 2.4306-1.5134 3.3633-0.41324 1.6545-1.1558 2.086-2.1856 2.8583-1.1223 0.8425-1.5278 2.5803-1.8496 3.8681-0.42114 1.6852-2.4262 3.5069-3.1945 5.0447-0.66008 1.3206-1.1786 1.5165-1.8493 2.8588-0.46592 0.9325-0.53336 2.4698-0.84087 3.6992-0.34105 1.3648-1.109 2.6559-2.0175 3.8675-0.1506 0.2015-0.49473 0.3269-0.67244 0.5046-0.89764 0.8981-1.5132 2.9702-1.5132 4.204 0 1.1486-1.5488 3.1687-1.8494 4.372-0.40932 1.6371-0.73047 2.9742-1.3453 4.2038-0.75853 1.5179-1.4773 2.1144-2.1857 3.5314-0.7792 1.5593-1.2336 2.4678-1.8494 3.6996-0.49466 0.9901-0.50431 2.4112-0.50431 3.6997 0 1.1326-0.39482 2.9242-0.67248 4.0355-0.30806 1.2321 0 2.9318 0 4.2042 0 1.6483-0.58944 2.6071-1.5134 3.5312-1.0828 1.0831-1.7755 1.7217-2.1857 3.3633-0.25963 1.039-0.95465 2.4141-1.5131 3.5309-0.73913 1.4784-0.82871 2.3377-1.8497 3.6997-0.76975 1.0266-1.3281 2.6227-1.6813 4.0357-0.37524 1.5015-0.49695 2.6753-1.1768 4.0358-0.68459 1.3697-0.83217 2.3198-1.177 3.6994-0.33416 1.3379-0.89645 2.2978-1.3451 3.1952-0.64843 1.2971-0.67218 2.6885-1.0088 4.036-0.36714 1.4695-0.50429 3.2336-0.50429 4.7078 0 1.2926-0.67267 2.8715-0.67267 4.3723 0 1.5505-0.16235 2.8346-0.50431 4.2041-0.33003 1.3207-0.16822 2.732-0.16822 4.2039 0 2.0925-0.50429 4.0938-0.50429 6.2219 0 1.6361 0.64607 1.9122 1.0088 3.3632 0.3192 1.2782 0.19152 2.7848 0.50421 4.0354 0.15285 0.6111 0.33654 1.1088 0.33654 1.8504 0.50804 2.0334 1.8495 2.6346 1.8495 4.7081 0 1.63 0.17099 2.3655 0.50411 3.6996 0.32533 1.3011 0 3.0239 0 4.372 0 1.346-0.52063 3.0918-0.84053 4.3722-0.0432 0.1724 0 0.3264 0 0.5044 0 1.6084-0.50431 3.311-0.50431 5.0446 0 0.4937 0.99512 2.8315 1.3448 3.5314 0.64904 1.2982 1.0017 3.1658 1.3452 4.5407 0.50783 2.032 1.0803 3.7929 1.8494 5.7172 0.61241 1.531 0.68538 2.7223 1.345 4.3716 0.43174 1.0789-0.0661 3.0982 0.16822 4.0361 0.32745 1.3099 0.3363 2.8445 0.3363 4.2039 0 1.5322 0.33654 2.7461 0.33654 4.2038-0.00028 1.456 0.18098 2.7427 0.50422 4.0358 0.38653 1.5476 0.16822 2.6908 0.67255 3.6994 0.85315 1.7071 1.6538 2.0763 2.0176 3.5316 0.36371 1.4557 0.86633 2.7924 1.1771 4.0356 0.36351 1.4553 1.8438 2.6699 2.1856 4.036 0.46948 1.8779 2.1698 3.5499 3.0264 5.5492 0.53039 1.2378 0.53797 2.757 1.009 3.6995 0.44663 0.8935 2.5117 1.6736 3.1945 2.1859 0.63811 0.4787 0.63486 1.017 0.84064 1.5135 0.20587 0.4968 0.5483 0.9359 1.5132 1.1771 1.155 0.2887 1.9169 1.4378 2.69 2.0177 1.0181 0.764-0.53196-2.4648-0.8404-3.6993-0.34904-1.3964-1.751-2.8624-2.354-3.8675-0.56409-0.9408-0.0784-3.1835-0.5045-4.036-0.69393-1.3882-1.3161-2.5749-1.6815-4.0356-0.38851-1.5548-1.1262-2.9934-1.5131-4.5405-0.39422-1.5786-0.99237-2.6574-1.6813-4.0356-0.8236-1.648-1.8493-2.2525-1.8493-4.2041 0-1.2531-0.96147-3.4363-1.5132-4.5401-0.5807-1.1616-0.33635-3.5005-0.33635-4.8767 0-1.3512-0.50448-2.4555-0.50448-3.8674 0-1.6677-0.45568-3.3366-0.84075-4.8767-0.35386-1.4167-0.84033-2.6837-0.84033-4.2042 0-1.1236 0.29421-1.504 0.5042-1.3452 0.20993 0.1589 0.33613 0.8946 0.33613 1.8501 0 1.0461 1.4189 2.1429 1.6816 3.1948 0.37052 1.4828 0.62975 3.0233 1.0087 4.5403 0.29813 1.193-0.32502 2.9027 0 4.2042 0.37198 1.489 1.1772 2.352 1.1772 4.0355 0 1.4059 0.5041 2.4275 0.5041 3.6997 0 0.9203 1.1161 2.7827 1.3451 3.6993 0.36065 1.4434 0.65227 2.9451 1.0087 4.3722 0.30218 1.2077 0.9904 2.7839 1.3452 4.2039 0.28829 1.1538 1.0086 2.5779 1.8494 3.6993 0.73154 0.9755 0.87126 2.7514 1.3453 3.6995 0.75243 1.5058 1.1142 2.3967 1.8492 3.8676 0.59657 1.1933 1.0351 2.123 1.3452 3.3632 0.35079 1.4035 1.5702 3.3088 2.1856 4.5403 0.58604 1.1719 1.244 2.4546 1.5134 3.5313 0.39728 1.5909 0.78412 3.4182 1.5131 4.8765 0.59006 1.1808 1.1684 2.3372 1.6813 3.3634 0.734 1.4684 1.6949 2.5353 2.6901 3.5313 1.216 1.2158 2.9033 1.8029 4.3714 2.5221 1.4684 0.7197 2.65 1.5201 3.0264 3.0269 0.32561 1.3022 1.3864 2.773 1.8495 3.6996 0.6849 1.3697 1.9714 2.6443 3.0264 3.6995 2.7912 2.7919 5.1465 5.7682 8.7431 7.5673 1.2179 0.6088 2.0277 0.9691 3.531 1.3451 1.516 0.3791 2.749 0.534 4.035 1.1769 1.2967 0.6489 2.5023 0.841 4.0353 0.841 0.60964 0 2.1495 1.42 3.1946 1.6815 0.9314 0.2332 2.4396-0.3152 3.6988 0 1.7312 0.4327 2.279-1.1119 4.0353-0.6725 1.6262 0.4065 4.1182 4.14 5.5482 5.2126 1.2665 0.9502 2.5854 1.9519 4.0354 3.1951 1.326 1.1371 2.2478 1.7814 3.867 2.1861 1.29 0.3229 2.0101 0.5003 3.0264 1.0089 1.088 0.5442 2.9165 0.168 4.2036 0.168 1.2333 0 2.4692 1.7971 3.1945 2.5226 1.7233 1.7237 3.7512 2.7041 4.8757 4.204 0.98795 1.3176 1.5536 3.067 2.6903 4.2038 1.0229 1.023 2.4576 2.2895 3.699 3.5315 1.027 1.0272 2.1991 1.7354 2.5219 3.0262 0.34523 1.3816 2.0034 2.0111 3.0266 2.5228 1.1276 0.5638 2.6479 0.9142 3.699 1.1769 0.93769 0.2347 2.4542 2.3037 3.1945 2.8589 0.56448 0.4236 3.4627-0.3363 4.3715-0.3363 1.1842 0 2.6383 1.7245 3.3629 2.6906 0.8251 1.101 1.339 2.0177 2.858 2.0177 1.565 0 2.8748-0.6889 3.8671-1.6818 0.78728-0.7868 1.0087-2.9233 1.0087-4.0355 0-1.0339 2.67 1.3251 3.1946 1.8499 0.82045 0.8207 1.8958 2.0642 2.522 2.6903 1.1827 1.183 2.7931 2.7283 3.3628 3.8677 0.57134 1.143 0.23996 2.6666 0.84061 3.8677 0.67102 1.3427 1.2183 2.1286 2.0177 3.1948 0.85208 1.1367 0.84058 2.0529 0.84058 3.8676 0 1.4598 0.33617 2.6123 0.33617 4.0358 0 1.2447-1.063 1.7306-1.345 2.8589-0.33747 1.3499-0.84061 2.2926-0.84061 4.0358 0 1.2087-2.1856 2.4239-2.1856 4.2039 0 1.3455 1.3486 3.378 1.6811 4.7083 0.38146 1.5264 0.80714 3.4642 1.5134 4.8768 0.81384 1.6281 2.0761 1.4107 2.5218 3.1949 0.38291 1.5317 0.48068 3.0997 0.84073 4.5402 0.33901 1.3567 1.1897 1.8998 1.5133 3.195 0.28153 1.1274 1.1478 2.157 1.8496 2.8587 0.86669 0.8669 2.3442 1.7211 3.5305 2.0179 2.1498 0.5373 2.9453 1.4046 4.0354 2.8588 0.95748 1.277 1.4408 2.6361 2.8581 3.6996 1.4095 1.0572 2.0325 1.1912 3.0264 2.1858 0.2269 0.2268 0.40626 0.3266 0.67272 0.5045 1.3411 0.8944 1.7114 2.0326 3.3628 2.8588 1.3398 0.6701 2.4874 1.7947 3.6988 2.5223 1.5359 0.9219 2.3376 1.5891 3.8672 2.3541 1.3165 0.6587 2.3281 1.9207 3.5309 2.5225 1.3087 0.6547 2.2774 1.1952 3.867 1.5133 1.2873 0.2578 2.9379 0.7344 4.0355 1.0091 1.6666 0.4168 3.2667 0.7087 4.5394 1.3451 1.196 0.5979 2.5044 2.0001 3.1945 2.691 0.99375 0.9936 2.6578 1.749 3.8673 2.3537 0.91292 0.4572 2.1728 1.2549 3.0262 1.682 1.6999 0.85 2.3685 2.0705 3.8672 3.1946 1.1543 0.8664 1.9431 1.9436 2.8581 2.8587 1.1154 1.1161 1.7894 2.6306 2.6902 3.5311 1.0749 1.0757 1.5247 2.232 1.8496 3.5314 0.40744 1.6312 1.5319 2.56 2.1856 3.8681 0.64443 1.289 2.4996 2.0433 3.3626 3.1949 0.83724 1.1164 2.4722 1.6316 3.3626 2.5222 1.169 1.1694 2.1944 1.5247 3.1948 2.8588 0.97232 1.2966 2.0134 1.6771 2.6899 2.3542 0.95579 0.9559 2.3391 1.4218 3.1945 1.8496 0.25765 0.1287 0.41545 0.2388 0.67282 0.3367 7.1173-0.3641 14.063-0.9191 21.017-1.8501 0.056-0.134 0.29652-0.1773 0.33656-0.3362 0.44296-1.773 2.6064-3.1535 3.5306-4.5403 0.95607-1.4347 2.4726-1.6043 3.6988-1.8496 1.4587-0.2919 2.1048-1.2644 3.1945-2.3541 1.1119-1.1125 2.175-2.1715 3.1946-3.5313 1.0058-1.3415 1.367-2.2716 2.1859-3.3631 0.96872-1.2923 1.1726-2.514 1.8495-3.8679 0.77436-1.5496 1.5929-2.7305 2.8584-3.3632 1.4721-0.7366 1.8956-1.8612 3.1945-2.1858 1.7366-0.4347 2.4895-1.1271 4.035-1.5137 1.2524-0.3134 3.3128-3.313 4.0355-4.0358 1.0613-1.0617 1.7837-1.7619 2.8581-3.1952 0.39646-0.5286 0.71737-1.2215 1.177-1.6815 0.35552-0.4446 0.65344-0.7325 1.009-1.1772 0.59638-0.7458 0.62365-3.1668 0.84035-4.0356 0.30879-1.2358 0.93771-2.8843 1.5134-4.0361 0.59148-1.1831 0.39697-2.8109 1.0087-4.0355 0.68085-1.3616 1.1091-2.5548 1.6816-3.6996 0.6395-1.2796 0.2092-2.7725 0.84033-4.0357 0.64946-1.2987 1.0372-2.5788 1.5133-3.5313 0.68174-1.3641 0.43443-1.8142 2.1854-2.6904 0.93643-0.468 1.8975-2.0656 2.6903-2.8586 0.73987-0.7403 1.1526-2.9776 1.5134-3.6995 0.63062-1.2615 2.2122-2.3808 3.0264-3.1954 0.64379-0.644 1.2516-2.0924 1.8495-2.6903 0.71535-0.7154 0.8268-2.8037 1.0086-3.5314 0.29044-1.1602 0.20961-2.5193 0.50482-3.6995 0.3248-1.3002-0.94482-2.2899-1.5134-2.8588-1.0791-1.0792-1.8013-2.4858-3.1944-3.5314-1.1982-0.8988-2.0332-1.3606-2.6902-2.0176-0.86436-0.8645-2.3982-1.283-3.5312-1.8496-0.9668-0.4839-1.8485-0.6727-3.3625-0.6727h-4.3714c-1.5335 0-2.3415 0.3361-3.699 0.3361-1.4489 0.0003-2.4189 0.3366-3.8668 0.3366h-4.0352c-1.2066 0-2.1168-0.6727-3.531-0.6727-1.4489 0-1.5786-0.9837-2.3538-2.018-0.69403-0.9259-2.5343-1.1771-3.6989-1.1771-1.5805 0-3.0432-0.1682-4.8758-0.1682-2.1172 0-2.4682 0.5616-4.0355 1.3453-1.1088 0.5547-2.1686 1.3282-2.8584 2.018-0.80313 0.8035-2.5767 1.3-3.5305 1.6816-1.254 0.5016-2.8543 0.2953-4.0354 0-0.80443-0.2012-1.0515-0.7325-1.1769-1.3455-0.12573-0.6123 0-1.3841 0-2.1859 0-1.5571 0.91588-2.2609 1.8495-3.1948 0.60735-0.6078 0.50444-2.754 0.50444-3.6996 0-1.879 0.20365-2.1147-0.50444-3.5313-0.60804-1.2162-1.8433-1.6754-2.5222-2.3542-0.80456-0.8049-1.4106-2.252-2.1856-3.0268-0.74117-0.7413-1.5118-2.183-2.0176-3.195-0.50135-1.0034-1.9284-1.5528-2.8584-2.0182-1.1563-0.578-2.9166-0.7709-3.867-1.0087-1.1627-0.2907-2.8299 0-4.0355 0h-3.8669c-1.4241 0-2.5268 0.3364-3.8671 0.3364-1.0041 0-1.9723 0.6723-3.3628 0.6723-1.0958 0-2.11-1.5241-2.8581-2.5223-0.98071-1.3078-2.1838-1.5109-3.0263-2.3541-0.89947-0.8999-1.9858-1.1451-2.6903-1.8497-0.83426-0.8348-3.121-1.2428-4.2032-1.5134-1.5903-0.3976-2.9216-0.7884-4.0354-1.3453-1.5341-0.7672-1.5923-1.5038-2.3538-3.0269-0.64805-1.2963-1.1772-2.012-1.1772-3.363 0-1.0705-0.65348-2.8209-1.0086-3.5313-0.25661-0.5138-0.67812-1.0747-0.84059-1.3455-0.52058-1.0415-0.0715-1.6171 0.16805-2.0177 0.23984-0.4006 0.32545-0.5915-0.67229-0.8407-0.12124-0.03-2.4523 2.1757-2.6902 2.3543-1.0628 0.7971-1.8612 0.6331-3.3629 1.0086-2.2149 0.5541-2.4492 0.4571-4.3712-0.5045-0.79954-0.3996-0.93204-0.8748-1.177-1.1769-0.24513-0.3022-0.4754-0.4697-1.6812-0.1683-1.2279 0.3072-2.1407 1.1546-3.1948 1.6818-1.1895 0.5949-1.8056 0.7238-2.8583 1.5132-1.0873 0.8161-3.0297 1.432-4.0352 2.1862-0.92777 0.696-3.3891-0.6019-3.8672-0.8406-1.2608-0.6313-1.295-2.8281-1.5132-3.6994-0.29433-1.1778-0.63009-1.3212-1.0088-1.0091-0.37813 0.3117-0.83866 1.1734-1.1769 1.8497-0.43469 0.8697-1.0663 1.1148-1.6812 1.177-0.615 0.062-1.1233-0.057-1.6816-0.3365-0.15768-0.079 0.16822-3.5331 0.16822-4.0355 0-0.6556-2.1184-2.4549-2.3541-2.6907-0.63666-0.6369-1.0392-0.4828-1.345 0-0.30554 0.4831-0.5544 1.2777-0.84059 1.8498-0.6549 1.3104-0.68315 2.9121-1.0089 4.5402-0.27507 1.3769-0.33604 2.8157-0.33604 4.2041 0 0.9616-0.83347 1.6742-1.5132 2.3542-0.63153 0.6319-0.73434-0.2444-0.6726-1.5135 0.0617-1.2689 0.34314-2.8235 0.16805-3.6994-0.28321-1.4165-0.82949-2.6457-1.177-4.0357-0.28865-1.1552-0.23155-2.3131-0.67258-3.1952-0.42061-0.8416-1.1607-0.1407-1.8494 0.841-0.68859 0.9812-1.4042 2.3208-1.6812 2.6905-1.0744 1.4325-3.3852 2.7763-4.2034 3.8677-0.38691 0.5156-2.5798 1.3739-3.1948 1.6814-1.4131 0.7066-3.1913 2.8142-4.3714 3.6993-1.1222 0.8423-1.0088 3.2325-1.0088 4.5406-0.00012 1.6493 0.55248 1.4167-0.3363 3.1948-0.4192 0.8384-1.0956 0.7983-1.6814 0.5045-0.58579-0.2939-0.95346-0.7852-1.1769-1.0089-0.93502-0.935-1.6621-1.3405-3.0265-1.6816-1.4903-0.3726-2.6478 0.3675-3.8671 0.6722-1.6481 0.4125-3.1497 1.1241-4.7076 1.5138-1.2622 0.3157-3.0896-0.058-4.2036-0.3363-0.94313-0.2357-1.8403-1.5041-2.6901-2.3542-1.0718-1.0722-1.4416-1.4176-2.5221-2.8589-0.81819-1.0914-1.0834-1.8633-2.1857-2.6902-1.354-1.0158-1.6547-0.4511-2.3538-1.85-0.60092-1.2021-1.0066-2.0153-1.6814-2.6905-0.68046-0.6805-0.50438-2.3616-0.50438-3.6992 0-1.3104-0.33648-2.9615-0.33648-4.3722 0-1.3606-0.26859-2.7561-0.5042-3.6996-0.2954-1.1817-0.16805-2.8591-0.16805-4.0359 0-0.99-1.6815-1.9757-2.5222-2.1857-1.3937-0.3486-2.3782-0.6726-4.5395-0.6726h-9.0793c-1.0122 0-1.2675-0.2137-1.8494-0.5049-0.23041 0-1.5134-3.5477-1.5134-4.0354 0-1.4602-0.33612-2.6121-0.33612-4.0361 0-1.3952-0.25629-2.7067-0.50454-3.6991-0.27383-1.0967-0.18371-2.4163-0.50438-3.6997-0.29065-1.1628 0-2.83 0-4.0357 0-1.4585 0.33634-2.1541 0.33634-3.6996 0-1.0348 0.16804-2.4833 0.16804-3.6994 0-1.5646-0.88202-2.7113-2.1857-3.3632-1.1379-0.5692-2.5096-0.3364-3.867-0.3364-1.3892 0-2.2699 0.3573-3.531 0.6725-1.4287 0.3575-2.1303 1.9628-2.69 2.5229-0.9525 0.9524-1.0366 2.464-1.3452 3.6993-0.29528 1.1812-0.16805 2.8589-0.16805 4.0359 0 0.6591-1.4763 2.542-1.6816 3.3627-0.37238 1.4909-2.4166 2.3858-3.3624 2.8588-1.4027 0.7018-3.8185-0.1437-4.8759-0.6726-0.86515-0.4328-2.4082-2.9305-2.8582-3.5309-0.72721-0.97-1.5267-1.695-2.186-2.3547-0.89743-0.8975-1.7068-1.379-2.6898-2.6904-0.76472-1.0198-1.319-2.1334-1.6816-2.8588-0.63733-1.275-0.81453-2.1336-1.5131-3.5313-0.63339-1.2671-1.4656-2.5946-2.1858-4.0354-0.79526-1.5912-0.82312-2.3368-1.8497-3.3633-1.0628-1.0635-1.3449-2.5465-1.3449-4.0361 0-1.4923-0.50441-3.06-0.50441-4.5403 0-1.3507-0.5045-2.6234-0.5045-4.0357 0.00029-1.3512 0-2.6235 0-4.0356 0.00029-1.248 0.84073-2.2772 0.84073-3.6996 0-1.5518-0.33623-2.239-0.33623-3.6995 0-1.7556 0.14128-2.6228 0.84073-4.3721 0.45036-1.1263 1.7454-1.9774 2.1857-2.8587 0.5289-1.058 1.0872-1.8417 1.8496-2.8587 0.77025-1.0276 1.9538-1.6249 3.1945-2.0177 1.2404-0.3932 2.5266-0.716 3.6988-1.0088 1.8232-0.4562 3.3567-0.2541 5.0442 0.168 1.8295 0.4577 3.6163 0.6726 5.5483 0.6726 0.93072 0 1.3779 0.4569 1.8494 0.8406 0.47151 0.3842 0.93406 0.7337 1.8495 0.5047 0.9323-0.2334 0.67268-3.2426 0.67268-4.0359 0-0.9518-0.37158-1.4515-0.33633-1.8495 0.0351-0.3982 0.4591-0.7342 1.345-1.1774 1.5509-0.7752 1.7782-1.0089 3.6991-1.0089 1.697 0 3.2843 0.3364 4.8756 0.3364 0.94274-0.0001 2.3137 1.0729 3.1948 1.5134 0.85751 0.429 1.3919 0.4329 2.0174 0.5046 0.62574 0.071 1.197 0.3066 1.8496 1.177 0.89407 1.1924 2.1729 2.0049 3.0264 2.8587 0.93189 0.9323 2.7128 1.4403 3.531 1.8496 0.59973 0.3002 0.5023 3.3545 0.67261 4.0359 0.32454 1.299 1.0947 2.3575 1.6812 3.5313 0.81911 1.6385 1.2029 3.4273 1.8494 5.0449 0.46303 1.1576 0.89705 2.2984 1.3454 3.195 0.7074 1.4156 1.1148 2.0709 2.3535 2.6904 1.0201 0.51 2.0737 0.5606 3.1948 0.8409 1.3275 0.332 2.4048-0.8526 3.0264-1.6819 0.47921-0.639 0.34921-1.5998 0.16804-2.5221-0.18084-0.9223-0.52579-1.8292-0.84066-2.3543-0.99465-1.6581-0.69674-3.2667-1.3451-5.2129-0.5108-1.5328-1.5719-2.9927-2.354-4.0358-0.78042-1.0409-0.925-2.8594-1.5131-4.0357-0.62826-1.2565-1.0238-2.2451-1.345-3.5315-0.31666-1.2664-0.39967-2.6074-0.67258-3.6995-0.42155-1.6866 0.55909-3.0811 1.6812-4.2036 0.83222-0.8324 0.94213-1.4147 1.1771-2.3545 1.3437-1.3442 2.0639-2.9506 2.8583-4.5399 0.67794-1.357 1.0089-2.457 1.0089-4.0361 0-0.826 0.76242-1.69 1.6812-2.5224 0.9189-0.8321 1.998-1.655 2.522-2.3541 0.97665-1.3023 2.3161-2.6154 3.0264-4.0358 0.59884-1.1985 1.7858-2.0992 2.1858-3.6994 0.27377-1.0968 0.18364-2.4163 0.50444-3.6996 0.35655-1.4272 0.66533-2.662 1.0086-4.0357 0.34368-1.3742 0.32751-2.5572 0-3.8678-0.3191-1.2768-0.85116-2.5434-1.345-3.5313-0.6669-1.3342-1.5899-2.0942-2.3538-2.8588-0.60244-0.6024-0.50417-3.0691-0.50417-4.0354 0-0.8574 2.5714-0.841 3.3625-0.841 1.2271 0 2.6819-0.7965 3.5308-1.009 0.78546-0.1963 1.8806-2.08 2.3537-3.0268 0.59108-1.1825 0.99323-2.2913 1.3453-3.6997 0.38022-1.5219-0.3364-2.697-0.3364-4.0354 0-1.1494 1.2744-2.4029 2.1857-2.8587 1.3108-0.6558 2.0927-1.1775 3.6991-1.1775 1.5562 0 2.8683 0.3364 4.3714 0.3364 1.7966 0 2.1979-0.5287 2.8583-1.8495 0.49799-0.9966 0.33618-2.8479 0.33618-4.0359 0-1.3623-0.0857-2.6972-0.33618-3.6997-0.20404-0.8165 0.15993-1.6493 0.33618-2.3541-0.22551-0.9033 1.6213-3.6388 1.8495-3.8674 0.87816-0.8784 1.8466-1.7641 3.0265-2.3543 1.0107-0.5055 2.1827-1.3417 3.1948-2.3541 1.09-1.0908 2.0245-2.3612 2.6901-3.0268 0.98422-0.9851 1.1256-1.9664 2.0175-2.8589 0.42064-0.4203 0.2291 3.0735 0 3.5314-0.3275 0.6552-0.15992 1.1164 0.16805 1.6818 0.32817 0.5647 0.87431 1.1427 1.009 1.6813 0.21879 0.8748-0.14456 1.4616-0.16822 1.8499-0.0237 0.3879 0.162 0.6727 1.3449 0.6727 1.6582 0 2.0793-0.4593 2.6903-1.6818 0.65193-1.3043 1.8204-1.4495 3.0264-2.3542 0.91318-0.685 1.4294-1.7654 2.3538-2.6906 1.0866-1.087 1.8363-1.3266 2.8584-2.6905 0.87999-1.1729 2.0535-1.1949 3.3627-1.8495 1.8395-0.9204 0.99736-2.1833 3.0264-2.6906 1.2524-0.3133 2.0418-1.3933 2.5222-2.3541 0.50212-1.0045-0.84059-2.4583-0.84059-3.5314 0-1.7142-0.46352-2.3557-1.3452-3.5312-0.47575-0.6346-0.93925-0.7499-1.3452-0.6729-0.40577 0.077-0.68212 0.3457-1.0086 0.6729-0.80147 0.8016-1.1771 2.858-1.6814 3.8674-0.70139 1.403-0.34844 2.3211-1.5133 3.1952-0.85158 0.6385-3.0973-1.7349-3.6991-2.1862-1.0556-0.7921-2.6365-1.009-4.035-1.009-0.86318 0-1.2957 0.331-1.6813 0.5044-0.38576 0.1736-0.76467 0.1523-1.3452-1.0087-0.4644-0.9295-0.30283-2.8929-0.50431-3.6996-0.18288-0.7309-0.63022-1.0375-0.84085-1.3451-0.21064-0.3076-0.0724-0.7683 0.67258-1.5136 0.97491-0.9751 1.5132-0.5556 1.5132-2.3545 0-1.355 1.1735-2.3522 2.1859-2.8584 1.3138-0.6572 0.60569-1.6815 2.5219-1.6815 1.3346 0 2.7214-0.4361 3.5309-0.8407 0.764-0.3826 1.2152-0.904 1.1769-1.3454-0.038-0.4412-0.45343-0.6726-1.3452-0.6726-1.6821 0-2.654 1.0089-4.3714 1.0089-1.0613 0-2.7637 1.1583-3.699 1.3452-1.3475 0.2696-2.6332 0.1539-4.035 0.5046-1.4436 0.3608-2.561 1.4811-4.0355 1.8495-1.2998 0.3252-2.9246 2.4517-3.1945 3.5314-0.42025 1.6824-1.792 3.1375-3.0264 4.3722-1.2323 1.2325-1.8318 1.2703-3.0265 0.6726-0.15872-0.079 1.8079-3.448 2.1859-4.2039 0.86955-1.7392 1.153-2.8343 2.6901-4.3723 1.167-1.1669 2.3876-1.8829 3.3628-2.8586 1.1453-1.1453 1.6908-2.3144 3.1945-2.6904 1.5326-0.3833 3.2535-0.1681 4.8759-0.1681 1.5395-0.0004 2.5462-0.673 3.867-0.673 1.2292 0 2.6122-1.7065 3.6989-2.5219 1.2455-0.9347 3.2715-0.8901 4.708-1.1775 1.6338-0.3267 2.3118-0.7565 2.8581-1.8496 0.60182-1.2038 2.1914-1.0142 3.0268-1.85 0.59676-0.5971 0.66897-1.2312 0.84061-1.6814 0.17115-0.4499 0.31355-0.7929 1.1768-1.0089 1.3236-0.3308 2.7798-0.2326 3.8671-0.5042 1.1625-0.2906 2.6618 0 3.8672 0 0.9465 0 1.5728-0.1429 1.8495-0.5045 0.27661-0.3619 0.3364-0.9821 0.3364-1.6816 0-1.3137-0.75847-2.4399-1.6815-3.3633-1.0596-1.0599-1.6295-2.0823-2.354-3.5313-0.62467-1.25-1.1954-2.7276-1.6812-3.6996-0.57352-1.1473-1.009-2.5226-1.5133-3.5312-0.67816-1.3573-2.0747-2.0743-3.1945-2.3544-1.1481-0.2868-2.5418-1.5329-3.1947-2.186-0.79422-0.7945-1.5751-1.6017-2.3538-2.186-1.1167-0.8377-1.6459-0.9378-2.1859-2.0179-0.50987-1.0203-1.2178-1.9316-1.8492-3.195-0.49051-0.9807-1.2018-1.5627-1.6816-2.5223-0.50983-1.0204-0.14714-2.6486-0.50441-3.3632-0.48264-0.9658-0.8432-2.5274-1.3449-3.5312-0.56578-1.1318-0.92455-1.3444-1.5132-2.5228-0.75082-1.5017 0.16977-2.3521-0.84097-3.3629-0.958-0.9585-1.0135-1.7681-2.1858-2.3545-0.71893-0.3592-1.0037-0.6893-1.3449-0.8405-0.34133-0.1511-0.70462-0.068-1.513 0.3364-0.14577 0.072-1.2009 2.57-1.3453 2.8586-0.61007 1.2206-1.4655 1.4655-2.6901 2.6904-1.1294 1.1297-1.7819 1.8828-2.3541 3.027-0.50571 1.0118-2.5344 0.3331-3.1945 0.1683-0.60944-0.1525-0.72308-0.7706-0.67242-1.5134 0.0508-0.7431 0.1525-1.5762 0-2.1864-0.29059-1.1627 0-2.8297 0-4.0355 0.00024-0.5779 0.63085-0.5928 1.3452-0.6728 0.71455-0.08 1.6091-0.2638 2.0176-0.6726 0.50507-0.5056 0.80521-0.7883 0.84072-1.1772 0.0351-0.3886-0.19409-0.8669-0.84072-1.5132-0.75446-0.7547-2.6466-0.4515-3.5308-0.6729-1.8739-0.4685-2.6136-0.2787-4.0355-1.3451-1.2585-0.944-1.9911-1.7442-2.3538-3.1949-0.23734-0.9505-2.2418-0.7707-3.1945-1.009-1.3431-0.3361-2.7337-0.3361-4.2032-0.3361-1.2604-0.0004-2.2193 1.0171-3.5308 1.3451-0.73638 0.1844-1.3569-0.123-1.8495-0.1682-0.49242-0.045-0.89794 0.06-1.1769 1.1769-0.37012 1.4799-0.96624 2.4368-1.5133 3.5312-0.44992 0.8998-0.50441 2.3821-0.50441 3.6997 0 1.6386-0.444 1.9231 0 3.6994 0.30193 1.2082-0.11226 2.8028-0.33644 3.6995-0.34222 1.3696 0.34095 2.6722 0 4.0359-0.43649 1.7463-0.92194 2.3591-0.16787 3.8677 0.69944 1.399 1.4351 1.7055 1.8494 3.3629 0.33292 1.3328-0.50445 2.6999-0.50445 4.0359 0 1.155-1.6915 2.5356-2.1858 3.195-0.61911 0.826-1.3449 2.2295-1.3449 3.3629-0.00012 0.922-2.189 1.5992-2.6903 1.85-1.3356 0.6679-2.048 1.7775-2.8582 2.8586-0.62992 0.8399-0.67247 2.8377-0.67247 3.8678 0 1.3159-0.33644 2.6375-0.33644 4.0356v4.0361c0 1.365 0.33124 2.0382 0 3.3628-0.31832 1.2738-1.8545 2.1046-2.69 2.5224-0.78728 0.3939-1.538-0.043-2.0177-0.6726-0.47955-0.6298-0.8407-1.53-0.8407-2.0177 0.00014-1.4225 0-2.9499 0-4.3724 0.00014-1.136-0.33614-2.4787-0.33614-3.6992v-4.2043c0-1.6455-0.51644-2.4013-0.84084-3.6992-0.20466-0.8186-2.0656-2.0658-2.6901-2.6905-0.91624-0.9164-2.1597-1.6686-3.1946-2.1862-0.85107-0.4254-2.0798-1.5757-2.6901-2.186-1.2826-1.2831-2.0706-1.7875-2.6901-3.0269-0.64051-1.2815-2.314-1.5134-3.699-1.5134-1.4678 0.0001-2.904-0.3285-4.0352-1.1768-0.8139-0.6106-1.0089-2.6625-1.0089-3.5317 0-1.6871-0.20259-3.0324-0.50422-4.5401-0.24767-1.2378-0.10242-2.9537 0.16804-4.0356 0.37884-1.5165 2.0242-2.704 2.5219-3.6996 0.69579-1.3921 2.9056-2.4013 4.0353-3.5313 1.0861-1.0864 1.6696-2.6815 3.0264-3.6997 1.7184-1.2893 3.5037-2.2559 5.3802-3.1951 0.99182-0.4958 1.1226-1.9083 1.5133-2.6901 0.69965-1.3999 1.1326-2.6461 2.0176-3.5315 1.0849-1.0855 2.0364-2.0363 3.0264-3.0271 0.85866-0.8587 3.265-0.6724 3.699-0.6724 0.59272 0 1.6751 3.1824 1.8493 3.5314 0.36812 0.736 0.64761 1.1436 1.1771 1.3451 0.52933 0.2018 1.3446 0.1428 2.0176 0 1.3457-0.2849 2.8954-0.9952 4.7077-1.5132 1.0094-0.2886 2.2166-2.2015 3.1945-2.6909 0.95166-0.4756 1.0087-2.6988 1.0087-3.8675 0-1.5342-0.16787-2.3416-0.16787-3.6993 0-0.7627-2.2268-1.6178-2.6902-1.8499-0.64933-0.3247-0.70992-1.0713-0.50431-1.8495 0.20508-0.7787 0.71417-1.5555 1.0087-1.8498 0.83313-0.8336 2.2744-1.4095 3.3625-1.6817 1.4464-0.3616 2.7714-0.2928 3.8671-0.8408 1.1827-0.5913 1.4969-1.3287 2.3542-2.186 1.3319-1.3324 1.4658-2.1648 1.8492-3.6994 0.28194-1.1279 0.13213-2.8822 0.33617-3.6993 0.33977-1.3593 1.635-2.6283 2.1859-3.3635 0.40476-0.5398 0.57172-1.0134 1.0089-1.3452 0.4369-0.3319 0.99814-0.5045 2.0177-0.5045 0.97027 0 1.6002 0.043 2.0175 0.3365 0.41714 0.2929 0.66187 0.8196 1.0088 1.5132 0.49809 0.9968 0.16822 2.8481 0.16822 4.0361 0 1.4282-1.1098 1.9502-1.8496 2.6903-0.66936 0.6695 2.3452 2.0954 2.6902 2.3543 0.53557 0.4014 0.23801 1.2651-0.33614 2.186-0.57445 0.9209-1.4091 1.8093-1.5133 2.0179-0.43845 0.8768-1.5509 1.7565-2.1856 3.027-0.84474 1.6896-1.0117 1.9344-3.3629 2.5223-1.5244 0.3809-2.7698 1.5532-3.6988 2.0176-0.66381 0.3322-0.69067 0.8015-0.50459 1.3454 0.18637 0.544 0.47359 1.1465 0.6726 1.3452 1.1655 1.1658 1.6688 1.1321 3.1946 1.5135 1.8123 0.4534 2.457-0.087 3.5307 1.3453 0.72966 0.973 1.0312 1.3896 1.5133 2.3542 0.68461 1.3702 1.4753 2.2026 1.8496 3.6993 0.1658 0.6641 2.6628 0.9113 3.5306 1.3454 1.1295 0.5648 2.8899 0.6883 3.8672 1.1772 1.2376 0.6189 1.8065 0.998 3.1945 1.3452 1.1208 0.2802 1.488 0.8343 2.8582 1.1771 0.81814 0.2048 1.3246 0.2668 1.6815 0 0.35684-0.267 0.49139-0.7894 0.67245-1.5133 0.15008-0.6011-0.50868-1.3463-1.177-1.8496-0.66795-0.5036-1.3297-0.7493-1.5132-0.8411-1.4083-0.7044-1.9569-0.9482-2.8584-1.8496-0.73094-0.7317-1.0583-1.3724-1.0088-1.85 0.0497-0.477 0.4768-0.813 1.0088-1.3449 0.51736-0.5175 1.0732-0.3539 1.6816 0 0.608 0.3535 1.2906 0.9543 1.513 1.1769 0.58272 0.583 1.2676 0.4213 1.8495 0 0.58217-0.4213 0.93448-1.2159 1.009-1.5134 0.26707-1.0693 0.50419-1.7725 0.50419-3.3632 0-1.6635-1.1109-1.9455-0.67247-3.6996 0.18468-0.7395-0.44282-1.2918-1.1772-1.6815-0.73404-0.3895-1.5966-0.6932-2.0174-1.0091-1.3533-1.0147-2.0065-0.9857-2.6903-2.3541-0.49255-0.9854-0.15803-1.5073 0.33642-1.681 0.4945-0.1744 1.1325-0.096 1.5133 0 1.5289 0.3819 1.8067 1.1338 2.858 2.1858 1.1968 1.1968 1.189 1.8555 2.5222 2.5223 1.2854 0.6429 1.2813 1.6816 2.69 1.6816 0.89548 0 1.0091-2.7121 1.0091-3.5315 0-1.4374-0.67271-2.5014-0.67271-4.0358 0-0.6089 1.42-1.6622 1.6815-2.186 0.39749-0.7956 0.35824-1.4913 0-2.018-0.35851-0.5268-0.98073-0.9806-1.3452-1.345-0.95852-0.9589-1.7808-1.376-2.3539-2.5226-0.65669-1.3142-2.0505-1.8826-3.1945-3.0266-0.17281-0.3461-0.74569 0.015-1.3452 0.168-0.59911 0.1524-1.1907 0.1132-1.5132-1.1769-0.30917-1.2384 0.39338-2.9183 0.67258-4.0361 0.31794-1.2713 1.0392-1.6341 1.3452-2.8587 0.23983-0.9602 0.76661-1.2377 1.0087-1.5131 0.24216-0.2756 0.29406-0.5891-0.16821-1.5137-0.32313-0.6465-2.0445-1.3583-2.6901-1.6813-1.0698-0.5355-1.742-1.4057-2.354-2.0183-0.5894-0.5895-0.33602-3.1354-0.33602-4.0356 0-0.6732-0.32414-1.2131-0.84098-1.5135-0.51645-0.29977-1.1351-0.39939-1.6811-0.67236-0.96729-0.48415-2.0765-0.5045-3.5312-0.5045-1.1619 0-2.9547-0.23466-4.035-0.50436-1.2419-0.31091-2.8664 0.29608-3.6988 0.50436-1.1627 0.29071-2.8302 0-4.0354 0-1.3781 0-1.8712-0.50987-3.1945-0.84099-0.85299-0.21326-2.8192 1.4935-3.531 1.8496-0.72149 0.36119-1.0308 0.094-1.1766-0.50409-0.14628-0.59873-0.16839-1.4372-0.16839-2.0181v-4.0359c0-0.56761-0.41453-0.87078-1.0087-1.0088-0.59409-0.138-1.3337-0.16822-1.8496-0.16822zm145.77 16.311c-0.71607 0.1481-1.32 0.7406-1.5133 1.5132-0.22431 0.8977-0.33395 2.1767-0.50431 2.8588-0.0535 0.2139-3.3252-0.4186-5.2122 0.3365-0.7981 0.3193-1.9426 0.822-2.6902 1.0089-1.0263 0.2564-0.71896 0.9919-0.50418 1.8498 0.26796 1.0722 3.2838 1.2833 4.2032 1.5135 0.64366 0.1608 1.5096 1.3413 2.1856 2.0179 0.67284 0.6733 1.8161 1.152 2.522 1.6814 0.54941 0.4121 1.1292 1.6337 1.8495 2.3543 0.74761 0.7481 2.0361 1.0973 3.0264 1.3451 1.199 0.3 1.9496-0.3361 3.1946-0.3361 1.0158 0 1.9027 0.5044 3.0265 0.5044 1.1642 0 1.975-0.5044 3.0264-0.5044 0.85624 0 1.2045-1.3817 1.6813-2.0177 0.62503-0.8339 0.6727-2.1237 0.67258-3.1953 0-0.9913-0.32454-1.9713-0.50445-2.6906-0.21373-0.8553-1.9033-1.2841-2.3539-2.1861-0.56552-1.1317-0.59936-1.4166-1.8494-2.3541-0.85247-0.6392-2.3973-1.367-3.0265-1.6814-0.99945-0.4999-1.7287-0.9186-2.5222-1.5136-0.525-0.3941-1.3227-0.5045-2.1858-0.5045h-1.8495c-0.24926-0.062-0.43394-0.049-0.67234 0zm59.183 21.692c-1.0842 0.1421-1.345 1.7748-1.3448 3.1949 0 1.4317-1.9186 2.7423-2.5222 3.1948-0.83027 0.6229 3.3672 2.2715 3.6991 2.3546 1.4189 0.3547 2.5983 1.5619 4.0351 1.8496 1.0364 0.2073 2.7531 1.3367 4.0354 1.8496 0.73546 0.2945 0.96444 1.3729 1.1768 2.5226 0.21297 1.1492 0.33618 2.3189 0.33618 3.0269 0 1.4625-0.009 2.9938 0.3364 4.3722 0.35941 1.4373 0.76416 1.9867 0.3363 3.699-0.20431 0.8184-0.30348 1.4431-0.3363 2.0181-0.0326 0.5751 0.0573 1.0663 0.67246 1.6815 1.1047 1.1053 4.2151 0.5161 5.5487 1.8498 1.32 1.3207 2.3506 2.2152 3.8669 4.0358 0.77787 0.9337-0.0718 2.6184 1.0088 3.6994 0.74179 0.7421 3.2013 0.8815 4.0352 0.6728 0.58775-0.1472 0.86888-3.4748 1.0089-4.0361 0.17589-0.7037 1.2102-1.0718 2.3539-1.1769 1.1436-0.105 2.458 0.052 3.0264 0.3363 1.0108 0.5056 1.1181 2.0845 0.84085 3.195-0.2091 0.8366-0.0325 1.387 0.33616 1.8499 0.3687 0.4624 0.91304 0.8771 1.5132 1.1773 1.1065 0.553 2.5864 0.3619 3.3628 0.1678 1.2336-0.3085 1.7868-2.0606 2.3538-3.195 0.38447-0.769 0.54861-1.3484 0.67257-1.8496 0.124-0.5011 0.20987-0.9456 1.0089-1.3454 1.1306-0.5656 1.6572-1.4415 1.3449-2.6908-0.33979-1.3606-0.72129-2.6193-1.3449-3.8673-0.82961-1.6592-2.5812-2.2724-4.0352-3.3631-1.1109-0.834-0.99752-1.1318-1.3453-2.5224-0.23325-0.9352-1.8353-1.6744-2.8581-2.1862-0.94157-0.4708-1.5586-2.1244-2.6901-2.6906-1.6439-0.822-3.2202-1.0698-4.708-2.1857-1.5125-1.1347-2.8409-1.5424-4.3714-2.6908-1.4791-1.1096-2.7768-2.4405-4.0352-3.6994-1.2411-1.2414-2.4559-1.7836-3.3626-2.6904-1.1132-1.1137-2.8569-1.7652-4.0352-2.3543-1.5229-0.7614-2.3778-1.6575-3.6989-2.1861-1.5958-0.6384-2.7317-0.8094-4.2036-1.1773-0.50264-0.1253-1.0686-0.5737-1.5128-0.8405-0.19023-0.048-0.34986-0.02-0.50483 0zm-146.95 79.875c-0.44969 0.4501-1.2803 0.052-1.8494 0.3363-0.60994 0.3054-0.87145 1.4681-1.0087 2.0182-0.22599 0.9027-0.14715 1.7441-0.33642 2.6906-0.21526 1.0754 0.10725 2.7831 0.33642 3.6992 0.18121 0.7253-0.98278 1.6291-1.3454 2.3542-0.37297 0.7469-0.85144 1.3598-1.3448 2.0179-0.57934 0.7728-0.49102 2.4545-0.67272 3.3631-0.21632 1.0826-0.26952 1.919-0.5043 2.8589-0.17823 0.7124-0.16822 1.4165-0.16822 2.1861 0 0.5819 1.382 0.943 1.8496 1.1771 0.50146 0.2507 0.76672-0.3457 1.0087-1.0089 0.2419-0.6639 0.44402-1.4531 0.84059-1.8499 0.81142-0.8115 1.232-1.1771 2.3539-1.1771 0.73417 0 1.5205-0.168 2.3538-0.168 0.46621 0 1.4233 0.2912 1.8496 0.5043 0.80921 0.4048 1.3032 0.7987 1.8493 1.3452 0.65035 0.6507 0.45923 1.4181 1.5134 1.6819 0.85774 0.2143 1.4006 0.6726 2.3536 0.6726h5.0441c1.0248 0 1.009-0.652 1.009-1.682 0-0.9045 0.13109-1.5333 0.33616-2.3539 0.2092-0.8383-0.18107-1.3963-0.33616-2.0183-0.18262-0.7302-1.3812-1.5491-1.8498-2.0175-1.0449-1.0452-2.1918-0.8653-2.5219-2.1865-0.15389-0.6142 0.16822-1.5275 0.16822-2.1857 0-0.6406 0.16804-1.2981 0.16804-2.0178 0-0.8608-0.54046-1.2495-0.84047-1.8498-0.37089-0.7416-1.0622-0.6724-1.8497-0.6726-0.73999 0-1.7898-0.1899-2.5219-0.3365-0.82769-0.1656-1.287-0.1101-1.8492-0.6727-0.61602-0.6157-1.1772-0.5204-1.1772-1.5132 0-0.5195-0.35618-1.088-0.50431-1.6815-0.17641-0.7054-0.31962-0.9545-0.84085-1.3453-0.31292-0.2348-1.1617-0.1683-1.5132-0.1683zm250.02 6.3902c-0.85891 0.1238-0.88772 3.2419-1.8495 4.204-0.88862 0.8888-1.7957 1.1231-2.522 1.8492-1.2482 1.2488-2.7515 2.416-4.0352 3.7-1.0999 1.1003-1.2804 3.2848-1.8495 4.7085-0.40731 1.0185 0 3.2486 0 4.3722 0 1.4283-1.6395 3.6785-2.1858 5.0442-0.34276 0.8575-0.63113 1.2491-1.1769 1.5137-0.54575 0.2648-1.259 0.2727-2.1858 0.5044-1.5058 0.3764-2.7232 0.689-4.0352 1.3455-0.95812 0.4789-1.6951 2.5497-2.1856 3.5313-0.50792 1.0162-0.22766 2.9283-0.50431 4.0356-0.44878 1.7954-0.34493 3.8249 0 5.549 0.2818 1.4102 0.50304 2.6847 0.84061 4.0362 0.36523 1.4608-0.27018 2.762-0.50445 3.699-0.35331 1.4138-0.83929 2.6854-1.177 4.0361-0.34288 1.3725 1.3452 2.7437 1.3452 4.204 0 1.539 0.39454 2.9616 0 4.5403-0.25687 1.0267 0.23054 2.5281 0.84061 4.0357 0.61006 1.5076 1.4389 3.0655 1.6812 4.0357 0.16701 0.6682-3.4837 5.0956-3.867 6.0537-0.48686 1.2173-1.1951 2.833-2.0175 4.2041-0.83116 1.3858 0.16822 2.9492 0.16822 4.3722 0 1.4827 0.33602 3.1231 0.33602 4.7084 0 1.9477 0.33644 3.9467 0.33644 5.8856 0 1.7438-1.7698 4.2205-2.1858 5.8853-0.39505 1.5809 0.0283 3.5876 0.67271 4.877 0.48042 0.9614-0.39195 3.4155-0.67271 4.5398-0.47344 1.8937 0.50444 4.0149 0.50444 5.8855v0.841c0 2.5961 2.1204 6.0636 2.6901 8.9122 0.3115 1.5585-0.56267 2.4194-0.84059 3.5314-0.42618 1.7047 0.49681 2.9967 0.84059 4.372 0.55713 2.2288 0.1095 4.153-0.84059 6.0537-0.47925 0.9591-0.4892 1.6876-0.33628 2.5225 0.15336 0.8351 0.50688 1.6874 0.84059 2.5224 0.64509 1.613 0.0677 3.8017 0.50443 5.5492 0.37179 1.4875-0.16822 4.1933-0.16822 5.8855 0 1.22-0.49189 1.7963-0.84059 2.5223s-0.53735 1.5495-0.16822 3.027c0.0886 0.3555 0.0789 0.8213 0.16822 1.1768 0.3106 1.2421 2.898 3.8556 4.035 4.7086 0.7936 0.5951 1.0258 1.234 1.1769 1.8499 0.15181 0.6159 0.16856 1.2308 0.16856 2.1861 0 2.0176 0.21943 3.2457 1.513 4.5402 0.79125 0.7915 2.3188 0.6817 3.1949 1.8498 0.71893 0.9587 0.6723 3.6498 0.6723 4.8764 0 1.4971 0.039 2.357 0.50457 3.195 0.46517 0.8379 1.3227 1.6591 2.3538 2.6905 0.44425 0.4444 0.90065 0.7326 1.345 1.177 1.0556 1.0562 1.2453 2.9272 2.3538 4.0358 1.0285 1.0289 2.6294 2.3238 4.0356 3.027 0.84822 0.4243 1.7321 0.1304 2.5217-0.3364 0.78946-0.4668 1.4521-1.0891 2.0179-1.5136 1.6572-1.2427 2.887-2.4117 3.6989-4.0357 1.1001-2.2006 3.0395-4.6059 3.5306-7.0625 0.18894-0.9449 0.45315-1.5557 1.009-2.0179 0.55569-0.4621 1.4252-0.7969 2.1856-1.1771 1.3577-0.6789 2.6404-2.1588 3.3626-3.3632 0.79567-1.3266 2.2266-2.2181 3.6991-1.8496 1.1363 0.2842 1.929 1.1233 2.5218 2.0176 0.59289 0.8946 1.121 1.7923 1.3454 2.6909 0.35953 1.4387-1.0958 3.2005-1.6816 4.3718-0.98137 1.9636-0.52174 3.4421-1.8494 5.2129-1.1856 1.5812-1.7792 3.8947-2.5221 5.381-1.0032 2.0072-0.74541 5.0728-1.1769 7.231-0.1919 0.9595-0.87754 2.8669-1.3452 4.0357-0.54487 1.3624-1.177 3.9526-1.177 5.381 0 1.8915-1.9757 3.4468-2.8581 5.2128-1.0464 2.0932-1.8289 4.2366-2.6902 6.3901-0.65192 1.6303-1.4473 3.3653-2.3538 4.8766-0.8052 1.3427-1.4851 2.7458-1.8496 4.204-0.33578 1.3435-1.2236 2.4476-1.8494 3.6995-0.59262 1.1852-0.69918 2.4068-1.3452 3.6995-1.1999 2.3999-3.8778 6.5681-5.8847 8.576-1.7301 1.7309-3.9746 4.0822-4.8759 5.8854-0.59147 1.1835-0.95995 2.0885-1.5134 3.1953-0.80677 1.6145-1.8839 3.4322-2.858 5.3809-0.68112 1.3625-1.859 2.0366-2.5223 3.3634-0.68773 1.3757-1.0002 1.9436-1.1766 2.6902 38.444-45.052 61.873-103.49 61.873-167.32 0-32.575-6.2862-63.615-17.318-92.319-1.1243 0.088-3.1135 0.5045-4.3719 0.5045-0.81013 0.0004-1.4113 0.6254-1.8492 1.3451-0.43807 0.72-0.69714 1.6122-0.84074 2.1863-0.39855 1.5944-0.31318 3.4046 0.16821 5.0447 0.48145 1.6399 1.2863 3.1359 2.1856 4.0357 0.68163 0.6816 1.0938 1.3435 1.0089 1.8495-0.085 0.5064-0.59393 0.841-1.6813 0.841-1.1775 0.0002-1.8654-0.1879-2.3539-0.5043-0.48842-0.3166-0.74427-0.7444-1.3451-1.3454-1.1393-1.1399-2.1763-2.097-3.699-2.8585-1.346-0.6733-2.4964-1.2485-3.6988-1.8499-0.86464-0.4324-1.5997-2.8632-2.0178-3.6993-0.65721-1.3148-1.1766-2.6396-1.1766-4.2044-0.00012-1.0629-1.084-2.6718-1.5134-3.5311-0.51982-1.0401-1.2412-2.1459-1.8493-3.3629-0.67983-1.3601-1.3022-2.2801-2.5224-3.1949-0.15526-0.117-0.21309-0.1861-0.33604-0.1684zm-318.78 140.08c-0.1868 0.082-0.41737 0.2489-0.67262 0.5043-0.74413 0.744-0.57039 0.5991-1.8494-0.1682 0.27696 0 3.5107 3.8898 4.2033 5.0448 0.3261 0.5435 1.2571 0.7117 2.1856 0.6725 0.92892-0.039 1.8227-0.2301 2.3542-0.3364 1.1903-0.238 1.5021-0.9482 1.3449-1.6814-0.15716-0.7337-0.78327-1.5688-1.3449-1.85-1.4578-0.7293-2.4553-1.2866-4.0354-1.6813-1.3071-0.3272-1.6258-0.7505-2.1857-0.5044zm3.0264 11.266c-0.99453 0.1797-2.4911 0.8098-3.0264 1.3454-0.42198 0.4221-0.0732 1.2122 0.33614 2.0178 0.40934 0.8057 0.99282 1.4814 1.177 1.85 0.51542 1.0308 3.5702 1.3451 4.708 1.3451 0.95593 0 1.3891-0.4319 1.513-1.0089 0.12418-0.5773-0.0219-1.2645-0.16805-1.8498-0.26319-1.0532-1.5638-2.0685-2.1858-2.6905-0.63306-0.6334-0.0724-0.1443-1.5133-1.0091-0.19903-0.05-0.5091-0.06-0.84049 0zm-13.619 9.0809c-1.9228 0-3.727 0.056-5.5485 1.5135-2.211 1.7687-4.8886 4.982-6.389 5.549 0.33183 0.83 0.59732 1.5486 1.1768 1.8494 0.57935 0.3015 1.4575 0.2804 2.354-0.168 1.4691-0.7347 2.4468-1.0552 3.699-1.6814 1.2982-0.6493 2.298-1.177 3.699-1.177 1.7978 0 2.9977 0.6232 4.5394 1.0088 1.1657 0.2913 2.054 0.6904 3.3627 1.3452 1.3608 0.6806 2.6087 1.2636 3.699 2.3545 1.0593 1.0592 3.0147 1.5883 4.0352 2.3538 1.0485 0.7869 2.9828 1.638 4.0354 2.6907 0.68215 0.6825 2.1247 2.1554 3.1945 2.6907 1.1294 0.5646 2.0932 0.4493 3.0264 0.1682 0.93306-0.2816 1.8979-0.6726 3.1946-0.6729 0.94584 0 2.5492 0.094 4.0352 0.1682 1.4858 0.074 2.7872 0.071 3.3625-0.5045 0.35748-0.3573 0.84928-0.843 1.0089-1.345 0.15959-0.5019-0.0121-0.9282-1.0089-1.1769-1.4213-0.3558-2.6738-0.7948-4.2032-1.1775-2.1167-0.5291-1.4465-1.4797-3.1945-2.3541-1.98-0.9903-2.5666-1.2721-4.876-1.8499-1.5128-0.3783-3.8063-0.6112-5.0441-1.8495-1.1136-1.1141-1.7108-3.1256-2.8581-3.6997-2.0066-1.0034-3.5412-2.3896-5.8847-2.8587-2.339-0.4677-5.1992-1.1771-7.5663-1.1767-0.69788 0-1.2084 0.001-1.8494 0zm44.892 15.302c-0.38188-0.034-0.7963 0.073-1.1772 0.1682-1.563 0.3908-5.6444 0.024-5.8848 0.5044-0.26641 0.4442-0.60865 0.8816-0.84034 1.3452-0.54071 1.0815-0.44994 1.432-0.16839 1.6817 0.28166 0.2495 0.81177 0.3072 1.3452 0.8407 0.19978 0.2002 0.67426 0.855 0.8407 1.5135 0.16632 0.6587 0.005 1.3422-0.67256 1.6816-0.15147 0.076-3.424 1.7273-3.3626 1.8497 0.44334 0.8867 0.89845 1.1769 2.8581 1.1769 1.631 0 2.7528 0.2147 4.2035 0.5047 0.97591 0.1952 3.1107 0.7359 4.0351 0.5046 2.1863-0.5468 3.8204-1.1305 5.2124-2.5225 1.1742-1.1749 1.1925-0.6345 3.3627-1.177 0.75072-0.1879 1.6502-0.1544 2.1856-0.3364 0.53569-0.1819 0.84071-0.5625 0.84071-1.5136 0-1.0096-1.1636-2.3541-2.5222-2.3541-1.1895 0-2.7725 0.043-3.8668-0.5043-1.5216-0.7614-1.5324-2.065-3.3628-2.5225-0.85945-0.2152-1.881-0.7364-3.0262-0.8408zm19.167 5.8854c-0.52963-0.1325-0.81115 0.6352-0.84033 1.5138-0.0297 0.8783 0.24796 1.8333 0.33602 2.1858 0.19502 0.7805 2.9312 1.1769 3.8672 1.1769 0.93539 0 1.6844 0.027 2.0176-0.168 0.33307-0.1956 0.23428-0.5401-0.16839-1.3453-0.56747-1.1356-0.89987-2.4678-2.0174-3.0269-0.92274-0.4612-2.1888-0.336-3.1948-0.3364zm15.132 1.1771c-0.2756 0.204-0.43109 0.9446-0.3363 1.6817 0.095 0.7372 0.47861 1.3806 1.6815 1.6817 1.185 0.2965 2.9333 0.1911 3.6989 0 0.62169-0.1554 0.38045-0.6625-0.16821-1.3456-0.54849-0.6826-1.276-1.3947-1.8494-1.6811-0.68847-0.3446-2.0025-0.3367-2.8583-0.3367-0.0696-0.035-0.0893-0.058-0.16822 0zm-54.98 1.6817c-0.22379 0.014-0.61845 0.168-0.84071 0.168-0.22381-0.1834-2.5955-0.047-3.6988 0.5049-0.77099 0.3852-1.2744 0.7595-1.5133 1.1767-0.23853 0.4171-0.25119 1.0106 0.16805 1.8499 0.43792 0.8757 0.49344 1.454 0.67282 1.8497 0.17872 0.3954 0.52006 0.5926 1.5133 0.8409 1.613 0.4031 3.065 0.9055 4.5393 0.1682 1.1397-0.5701 1.6813-2.2167 1.6816-3.5313 0-1.6227-0.45393-2.5099-1.8496-2.859-0.21568-0.054-0.44877-0.1815-0.67258-0.168zm62.042 6.0536c-0.85971 0.1827-0.71054 1.4753 0.16839 2.3544 1.0487 1.0488 2.147 0.692 2.8581 0.3363 0.77434-0.3874 0.47963-1.0295-0.16804-1.5134-0.6478-0.4839-1.632-0.8309-1.6814-0.8408-0.50702-0.2537-0.89033-0.3972-1.177-0.3365zm5.2121 7.399c-0.45136 0.3498-1.8492 1.4964-1.8492 2.1862 0 0.6568 0.68371 0.6516 1.5131 0.5045 0.82936-0.1476 1.7146-0.437 1.8496-0.5045 0.77861-0.3896-0.62675-1.6176-1.3451-2.1862-0.0254 0.012-0.12591-0.021-0.16839 0zm1.009 6.0539c0.0281 0.047 0.13575 0.2849 0.16805 0.3361 0.12538-0.1048 0.18776-0.3274 0.16839-0.3361-0.0173-0.01-0.18883-0.074-0.33642 0zm0.16805 0.3361c-0.59392 0.4981-2.4585 1.7642-2.69 2.6905-0.19708 0.7886 3.2832-0.1282 3.3626-0.1679 0.78079-0.3906-0.15716-1.706-0.67259-2.5226zm7.0619 1.8496c-0.0768 0.7972-0.91459 2.9716-0.16821 3.5316 1.1008 0.8259 1.6029 0.591 1.8495 0.168 0.24652-0.4228 0.22043-1.0725 0-1.5132-0.42103-0.8424-0.90868-1.3973-1.6812-2.1863z" fill="#250" transform="translate(5 -397.36)"/>
    </g>
  </g>
  <metadata>
    <rdf:RDF>
      <cc:Work>
        <dc:format>image/svg+xml</dc:format>
        <dc:type rdf:resource="http://purl.org/dc/dcmitype/StillImage"/>
        <cc:license rdf:resource="http://creativecommons.org/licenses/publicdomain/"/>
        <dc:publisher>
          <cc:Agent rdf:about="http://openclipart.org/">
            <dc:title>Openclipart</dc:title>
          </cc:Agent>
        </dc:publisher>
        <dc:title>eco green solidarity icon</dc:title>
        <dc:date>2013-09-13T19:12:41</dc:date>
        <dc:description/>
        <dc:source>http://openclipart.org/detail/183412/eco-green-solidarity-icon-by-dominiquechappard-183412</dc:source>
        <dc:creator>
          <cc:Agent>
            <dc:title>dominiquechappard</dc:title>
          </cc:Agent>
        </dc:creator>
        <dc:subject>
          <rdf:Bag>
            <rdf:li>ecology</rdf:li>
            <rdf:li>green</rdf:li>
            <rdf:li>icon</rdf:li>
            <rdf:li>solidarity</rdf:li>
          </rdf:Bag>
        </dc:subject>
      </cc:Work>
      <cc:License rdf:about="http://creativecommons.org/licenses/publicdomain/">
        <cc:permits rdf:resource="http://creativecommons.org/ns#Reproduction"/>
        <cc:permits rdf:resource="http://creativecommons.org/ns#Distribution"/>
        <cc:permits rdf:resource="http://creativecommons.org/ns#DerivativeWorks"/>
      </cc:License>
    </rdf:RDF>
  </metadata>
</svg>
