<?xml version="1.0" standalone="no"?><svg xmlns="http://www.w3.org/2000/svg" viewBox="0 0 1440 320"><path fill="#55ff10" fill-opacity="0.99" d="M0,256L40,261.3C80,267,160,277,240,245.3C320,213,400,139,480,117.3C560,96,640,128,720,144C800,160,880,160,960,133.3C1040,107,1120,53,1200,32C1280,11,1360,21,1400,26.7L1440,32L1440,320L1400,320C1360,320,1280,320,1200,320C1120,320,1040,320,960,320C880,320,800,320,720,320C640,320,560,320,480,320C400,320,320,320,240,320C160,320,80,320,40,320L0,320Z"></path></svg>